<?xml version="1.0" encoding="UTF-8"?><svg id="_圖層_2" xmlns="http://www.w3.org/2000/svg" viewBox="0 0 41.65 48.28"><defs><style>.cls-1{fill:#fff;}</style></defs><g id="_图层_1"><path class="cls-1" d="M5.02,3.49C9.67,1.34,15.94,0,21.05,0c14.06,0,19.88,5.82,19.88,19.44v5.91c0,4.66.09,8.15.18,11.55.09,3.49.27,6.72.54,10.3h-10.57c-.45-2.42-.45-5.46-.54-6.9h-.18c-2.78,5.11-8.78,7.97-14.24,7.97-8.15,0-16.12-4.93-16.12-13.7,0-6.9,3.31-10.93,7.88-13.17s10.48-2.69,15.5-2.69h6.63c0-7.43-3.31-9.94-10.39-9.94-5.11,0-10.21,1.97-14.24,5.02l-.36-10.3ZM19.08,39.5c3.67,0,6.54-1.61,8.42-4.12,1.97-2.6,2.51-5.91,2.51-9.49h-5.2c-5.38,0-13.35.9-13.35,7.97,0,3.94,3.31,5.64,7.61,5.64Z"/></g></svg>