<?xml version="1.0" encoding="UTF-8"?><svg id="_圖層_2" xmlns="http://www.w3.org/2000/svg" viewBox="0 0 41.41 65.48"><defs><style>.cls-1{fill:#fff;}</style></defs><g id="_图层_1"><path class="cls-1" d="M8.67,65.48H0V.04h8.67v65.44Z"/><path class="cls-1" d="M8.59,65.48H0V31.89c.16-7.54,3.77-15.41,9.91-21.59C16.08,4.07,24.08.33,31.85.02c.36-.01.72-.02,1.07-.02,2.61,0,5.31.36,8.02,1.07l.46.12-5.26,6.22s-.44-.3-.61-.42c-.88-.61-2.93-2.03-6.28-2.23-.49-.03-.98-.05-1.46-.05-11.42,0-19.09,7.75-19.1,19.29l-.12,41.48Z"/></g></svg>