<?xml version="1.0" encoding="UTF-8"?><svg id="_圖層_2" xmlns="http://www.w3.org/2000/svg" viewBox="0 0 46.79 66.39"><defs><style>.cls-1{fill:#fff;}</style></defs><g id="_图层_1"><path class="cls-1" d="M23.64,66.39c-4.1,0-8.69-1.05-13.29-3.02-1.52-.64-3.88-1.98-5-2.69-1.29-.81-4.1-3-5.21-4.12l-.14-.14,3.48-7.53.3.72c.61,1.47,1.84,2.91,3.54,4.9.46.54.95,1.11,1.47,1.74,4.61,5.28,9.85,7.7,16.48,7.74,3.27.02,6.83-.95,9.17-2.9,2.49-2.09,4.3-5.55,4.49-8.62.24-3.86-.84-9.25-7.31-12.99-1.39-.8-5.26-2.66-10.98-4.53C9.35,31.12,2.51,25.48,1.74,18.37c-.57-5.23,1.22-9.29,5.22-12.74C11.06,2.09,16.12.42,22.43.04c9.1-.54,17.52,4.29,19.29,5.71l.21.14-3.57,7.51-.32-.63c-3.79-7.53-9.29-10.11-15.65-10.11-3.61,0-6.19,1.18-8.97,3.29-2.5,1.9-4.29,5.12-4.24,7.73.16,9.31,12.57,13.23,13.11,13.41,9.67,3.38,16.19,6.46,19.38,9.16,3.27,2.76,5.13,7.04,5.12,11.75-.02,4.93-2.1,9.61-5.58,12.51-4.38,3.66-9.4,5.67-16.62,5.85-.31,0-.63.02-.95.02Z"/></g></svg>