<?xml version="1.0" encoding="UTF-8"?><svg id="_圖層_2" xmlns="http://www.w3.org/2000/svg" viewBox="0 0 62.61 65.67"><defs><style>.cls-1{fill:#fff;}</style></defs><g id="_图层_1"><path class="cls-1" d="M51.46,47.87c-1.31,2.93-2.45,5.46-5.75,8.89-4.11,4.28-8.73,6.41-14.11,6.5h-.25c-4.75,0-9.77-2.35-13.77-6.46-7.11-7.3-10.06-18.58-8.11-31h53.13s-.73-3.18-1.51-5.13c-1.45-3.6-3.5-7.11-6.13-10.08-2.72-3.07-6.13-5.69-9.62-7.38-4.46-2.16-8.97-3.21-13.79-3.21s-9.47,1.15-13.66,3.25c-3.58,1.79-6.87,4.32-9.53,7.33-2.69,3.04-4.89,6.68-6.2,10.24C.86,24.4-.01,27.83,0,32.97c0,4,.72,7.81,2.25,11.97,1.36,3.71,3.37,7.05,6.15,10.21,2.48,2.82,5.95,5.48,9.54,7.3,4.1,2.08,8.96,3.23,13.68,3.23h.02c6.34,0,12.4-1.87,17.54-5.39,4.48-3.07,8.03-7.17,10.55-12.17l.21-.42h-8.38s-.08.18-.08.18ZM31.7,2.11c15.99.29,21.44,18.7,21.96,20.99H9.71C14.2,5.82,25.92,2.01,31.7,2.11Z"/></g></svg>