<?xml version="1.0" encoding="UTF-8"?><svg id="_圖層_2" xmlns="http://www.w3.org/2000/svg" viewBox="0 0 65.05 66.03"><defs><style>.cls-1{fill:#fff;}</style></defs><g id="_图层_1"><path class="cls-1" d="M58.1,53.57c-9.39,11.86-22.69,12.46-25.26,12.46-4.87,0-9.19-.93-13.62-2.92-3.95-1.78-7.24-4.13-10.07-7.19-3.1-3.36-5.22-6.62-6.66-10.27C.75,41.23-.04,37.22,0,33.01c.05-4.55.85-8.67,2.45-12.59,1.68-4.12,3.96-7.62,6.76-10.41,3.18-3.16,6.35-5.41,9.98-7.06C23.65.91,27.86,0,32.86,0s9.28.94,13.65,3.05c3.22,1.55,6.38,3.26,9.55,6.99l.13.15-3.84,6.75-.28-.6c-3.06-6.53-6.41-9.36-9.24-11.01-3.02-1.75-5.88-2.92-10.01-2.92-3.63,0-7.01.97-10.33,2.95-2.69,1.61-4.97,3.72-7.18,6.64-2.08,2.76-3.6,5.76-4.78,9.45-1.21,3.78-1.77,7.45-1.77,11.55s.59,8.05,1.76,11.54c1.25,3.75,2.68,6.58,4.8,9.43,2.16,2.93,4.38,4.99,7.19,6.68,3.38,2.04,6.47,2.92,10.32,2.95,2.72.03,5.19-.53,7.8-1.74l17.48-8.31Z"/><path class="cls-1" d="M33.56,63.98s1.07-.41,1.97-.55c1.15-.18,1.67-.31,2.04-.43,6.22-1.99,8.34-4.37,10.2-6.36,6.19-6.63,5.57-14.87,4.92-23.25-.73-9.3,3.93-18.75,9.43-26.01.41-.55.83-1.11,1.28-1.63l1.03-1.2-.44,1.46c-2.62,8.74-1.09,15.65.15,21.21.94,4.25,1.31,8.85.36,13.12-.68,3.06-1.76,6.03-3.32,8.75-2.5,4.39-6.01,8.33-10.39,10.82-3.24,1.84-6.8,3.11-10.45,3.83-1.29.25-2.63.49-3.95.52l-2.83-.32Z"/></g></svg>