<?xml version="1.0" encoding="UTF-8"?><svg id="_圖層_2" xmlns="http://www.w3.org/2000/svg" viewBox="0 0 33.41 48.28"><defs><style>.cls-1{fill:#fff;}</style></defs><g id="_图层_1"><path class="cls-1" d="M30.36,10.75c-3.67-1.25-6.36-1.97-10.75-1.97-3.22,0-7.08,1.17-7.08,5.11,0,7.34,20.87,2.69,20.87,19.35,0,10.75-9.58,15.05-19.35,15.05-4.57,0-9.23-.81-13.62-1.97l.72-9.85c3.76,1.88,7.7,3.04,11.82,3.04,3.05,0,7.88-1.16,7.88-5.64C20.87,24.81,0,30.99,0,14.33,0,4.39,8.69,0,18.09,0c5.64,0,9.32.9,13.08,1.7l-.81,9.05Z"/></g></svg>